<mxfile host="app.diagrams.net" agent="Mozilla/5.0 (Macintosh; Intel Mac OS X 10_15_7) AppleWebKit/537.36 (KHTML, like Gecko) Chrome/136.0.0.0 Safari/537.36" version="27.1.0">
  <diagram name="Page-1" id="qQ3Sb1TTQBvvpaSQRFL6">
    <mxGraphModel dx="2793" dy="1727" grid="1" gridSize="10" guides="1" tooltips="1" connect="1" arrows="1" fold="1" page="1" pageScale="1" pageWidth="850" pageHeight="1100" math="0" shadow="0">
      <root>
        <mxCell id="0" />
        <mxCell id="1" parent="0" />
        <mxCell id="1grhzZhqxZWq7j87jwru-6" style="edgeStyle=orthogonalEdgeStyle;rounded=0;orthogonalLoop=1;jettySize=auto;html=1;exitX=1;exitY=0.5;exitDx=0;exitDy=0;" edge="1" parent="1" source="next_encoder_block" target="enc_next_tensor">
          <mxGeometry relative="1" as="geometry" />
        </mxCell>
        <mxCell id="next_encoder_block" value="Next POI Encoder&lt;br&gt;&lt;i&gt;(Linear, ReLU, LayerNorm, Dropout)&lt;/i&gt;" style="rounded=1;whiteSpace=wrap;html=1;fillColor=#f8cecc;strokeColor=#b85450;" parent="1" vertex="1">
          <mxGeometry x="320" y="320" width="150" height="80" as="geometry" />
        </mxCell>
        <mxCell id="1grhzZhqxZWq7j87jwru-7" style="edgeStyle=orthogonalEdgeStyle;rounded=0;orthogonalLoop=1;jettySize=auto;html=1;entryX=0;entryY=0.5;entryDx=0;entryDy=0;" edge="1" parent="1" source="enc_next_tensor" target="film_layer_next">
          <mxGeometry relative="1" as="geometry" />
        </mxCell>
        <mxCell id="enc_next_tensor" value="enc_next&lt;br&gt;[B, seq_len, shared_size]" style="shape=parallelogram;perimeter=parallelogramPerimeter;whiteSpace=wrap;html=1;fixedSize=1;fillColor=#fff2cc;strokeColor=#d6b656;" parent="1" vertex="1">
          <mxGeometry x="510" y="330" width="180" height="60" as="geometry" />
        </mxCell>
        <mxCell id="1grhzZhqxZWq7j87jwru-22" style="edgeStyle=orthogonalEdgeStyle;rounded=0;orthogonalLoop=1;jettySize=auto;html=1;entryX=0;entryY=0.5;entryDx=0;entryDy=0;" edge="1" parent="1" source="film_layer_next" target="mod_next_tensor">
          <mxGeometry relative="1" as="geometry" />
        </mxCell>
        <mxCell id="film_layer_next" value="FiLM Layer&lt;br&gt;&lt;i&gt;(γ * x + β)&lt;/i&gt;" style="shape=hexagon;perimeter=hexagonPerimeter2;whiteSpace=wrap;html=1;size=0.25;fillColor=#fad7ac;strokeColor=#b46504;" parent="1" vertex="1">
          <mxGeometry x="740" y="325" width="150" height="70" as="geometry" />
        </mxCell>
        <mxCell id="1grhzZhqxZWq7j87jwru-25" style="edgeStyle=orthogonalEdgeStyle;rounded=0;orthogonalLoop=1;jettySize=auto;html=1;entryX=0;entryY=0.75;entryDx=0;entryDy=0;" edge="1" parent="1">
          <mxGeometry relative="1" as="geometry">
            <mxPoint x="1040" y="657.5" as="sourcePoint" />
            <mxPoint x="1130" y="560" as="targetPoint" />
            <Array as="points">
              <mxPoint x="1040" y="560.5" />
            </Array>
          </mxGeometry>
        </mxCell>
        <mxCell id="mod_cat_tensor" value="mod_cat&lt;br&gt;[B, 1, shared_size]" style="shape=parallelogram;perimeter=parallelogramPerimeter;whiteSpace=wrap;html=1;fixedSize=1;fillColor=#fff2cc;strokeColor=#d6b656;" parent="1" vertex="1">
          <mxGeometry x="940" y="670" width="180" height="60" as="geometry" />
        </mxCell>
        <mxCell id="1grhzZhqxZWq7j87jwru-23" style="edgeStyle=orthogonalEdgeStyle;rounded=0;orthogonalLoop=1;jettySize=auto;html=1;entryX=0;entryY=0.25;entryDx=0;entryDy=0;" edge="1" parent="1" source="mod_next_tensor" target="shared_layers_container">
          <mxGeometry relative="1" as="geometry" />
        </mxCell>
        <mxCell id="mod_next_tensor" value="mod_next&lt;br&gt;[B, seq_len, shared_size]" style="shape=parallelogram;perimeter=parallelogramPerimeter;whiteSpace=wrap;html=1;fixedSize=1;fillColor=#fff2cc;strokeColor=#d6b656;" parent="1" vertex="1">
          <mxGeometry x="950" y="330" width="180" height="60" as="geometry" />
        </mxCell>
        <mxCell id="1grhzZhqxZWq7j87jwru-30" style="edgeStyle=orthogonalEdgeStyle;rounded=0;orthogonalLoop=1;jettySize=auto;html=1;entryX=0.75;entryY=1;entryDx=0;entryDy=0;" edge="1" parent="1" source="shared_cat_tensor" target="m1y5kPZh6noj5z31yK5j-2">
          <mxGeometry relative="1" as="geometry">
            <Array as="points">
              <mxPoint x="1721" y="360" />
            </Array>
          </mxGeometry>
        </mxCell>
        <mxCell id="shared_cat_tensor" value="shared_cat&lt;br&gt;[B, 1, shared_size]" style="shape=parallelogram;perimeter=parallelogramPerimeter;whiteSpace=wrap;html=1;fixedSize=1;fillColor=#fff2cc;strokeColor=#d6b656;" parent="1" vertex="1">
          <mxGeometry x="1530" y="330" width="180" height="60" as="geometry" />
        </mxCell>
        <mxCell id="1grhzZhqxZWq7j87jwru-28" style="edgeStyle=orthogonalEdgeStyle;rounded=0;orthogonalLoop=1;jettySize=auto;html=1;" edge="1" parent="1" source="shared_next_tensor" target="next_head_block">
          <mxGeometry relative="1" as="geometry" />
        </mxCell>
        <mxCell id="shared_next_tensor" value="shared_next&lt;br&gt;[B, seq_len, shared_size]" style="shape=parallelogram;perimeter=parallelogramPerimeter;whiteSpace=wrap;html=1;fixedSize=1;fillColor=#fff2cc;strokeColor=#d6b656;" parent="1" vertex="1">
          <mxGeometry x="1520" y="670" width="180" height="60" as="geometry" />
        </mxCell>
        <mxCell id="1grhzZhqxZWq7j87jwru-32" style="edgeStyle=orthogonalEdgeStyle;rounded=0;orthogonalLoop=1;jettySize=auto;html=1;exitX=1;exitY=0.5;exitDx=0;exitDy=0;" edge="1" parent="1" source="cat_head_block" target="out_cat">
          <mxGeometry relative="1" as="geometry" />
        </mxCell>
        <mxCell id="cat_head_block" value="CategoryHead&lt;br&gt;&lt;i&gt;(Tokenize, Transformer Enc,&lt;br&gt;Mean Pool, Classifier)&lt;/i&gt;" style="rounded=1;whiteSpace=wrap;html=1;fillColor=#f8cecc;strokeColor=#b85450;" parent="1" vertex="1">
          <mxGeometry x="1850" y="314.995" width="200" height="90" as="geometry" />
        </mxCell>
        <mxCell id="1grhzZhqxZWq7j87jwru-29" style="edgeStyle=orthogonalEdgeStyle;rounded=0;orthogonalLoop=1;jettySize=auto;html=1;entryX=0;entryY=0.5;entryDx=0;entryDy=0;" edge="1" parent="1" source="next_head_block" target="out_next">
          <mxGeometry relative="1" as="geometry" />
        </mxCell>
        <mxCell id="next_head_block" value="NextHead&lt;br&gt;&lt;i&gt;(PosEnc, Causal Transformer Enc,&lt;br&gt;Attn Pool, Classifier)&lt;/i&gt;" style="rounded=1;whiteSpace=wrap;html=1;fillColor=#f8cecc;strokeColor=#b85450;" parent="1" vertex="1">
          <mxGeometry x="1800" y="650" width="220" height="100" as="geometry" />
        </mxCell>
        <mxCell id="out_cat" value="Category Output&lt;br&gt;[B, num_classes]" style="shape=document;whiteSpace=wrap;html=1;boundedLbl=1;fillColor=#dae8fc;strokeColor=#6c8ebf;" parent="1" vertex="1">
          <mxGeometry x="2110" y="324.995" width="150" height="70" as="geometry" />
        </mxCell>
        <mxCell id="out_next" value="Next POI Output&lt;br&gt;[B, num_classes]" style="shape=document;whiteSpace=wrap;html=1;boundedLbl=1;fillColor=#dae8fc;strokeColor=#6c8ebf;" parent="1" vertex="1">
          <mxGeometry x="2110" y="665" width="150" height="70" as="geometry" />
        </mxCell>
        <mxCell id="1grhzZhqxZWq7j87jwru-31" style="edgeStyle=orthogonalEdgeStyle;rounded=0;orthogonalLoop=1;jettySize=auto;html=1;exitX=0.25;exitY=1;exitDx=0;exitDy=0;entryX=0;entryY=0.5;entryDx=0;entryDy=0;" edge="1" parent="1" source="m1y5kPZh6noj5z31yK5j-2" target="cat_head_block">
          <mxGeometry relative="1" as="geometry" />
        </mxCell>
        <mxCell id="m1y5kPZh6noj5z31yK5j-2" value="squeeze(1)&lt;div style=&quot;line-height: 130%; margin-left: 0px; padding-bottom: 0px; padding-left: 10px;&quot;&gt;[B,shared_size]&lt;/div&gt;" style="shape=step;perimeter=stepPerimeter;whiteSpace=wrap;html=1;fixedSize=1;align=center;fillStyle=solid;fillColor=#D6B656;direction=west;spacing=3;" parent="1" vertex="1">
          <mxGeometry x="1690" y="435" width="125" height="80" as="geometry" />
        </mxCell>
        <mxCell id="1grhzZhqxZWq7j87jwru-5" style="edgeStyle=orthogonalEdgeStyle;rounded=0;orthogonalLoop=1;jettySize=auto;html=1;entryX=0;entryY=0.5;entryDx=0;entryDy=0;" edge="1" parent="1" source="input_next" target="next_encoder_block">
          <mxGeometry relative="1" as="geometry" />
        </mxCell>
        <mxCell id="input_next" value="Next POI Sequence Input&lt;br&gt;[B, seq_len, feature_size]&lt;br&gt;&lt;i&gt;Padding Handled&lt;/i&gt;" style="shape=cylinder3;whiteSpace=wrap;html=1;boundedLbl=1;backgroundOutline=1;size=15;fillColor=#dae8fc;strokeColor=#6c8ebf;" parent="1" vertex="1">
          <mxGeometry x="70" y="320" width="200" height="80" as="geometry" />
        </mxCell>
        <mxCell id="note_next_path" value="Next POI Task Path" style="text;html=1;align=center;verticalAlign=middle;resizable=0;points=[];autosize=1;strokeColor=none;fillColor=none;fontSize=14;fontStyle=1" parent="1" vertex="1">
          <mxGeometry x="90" y="280" width="170" height="30" as="geometry" />
        </mxCell>
        <mxCell id="1grhzZhqxZWq7j87jwru-27" style="edgeStyle=orthogonalEdgeStyle;rounded=0;orthogonalLoop=1;jettySize=auto;html=1;exitX=1;exitY=0.75;exitDx=0;exitDy=0;entryX=0.5;entryY=0;entryDx=0;entryDy=0;" edge="1" parent="1" source="shared_layers_container" target="shared_next_tensor">
          <mxGeometry relative="1" as="geometry" />
        </mxCell>
        <mxCell id="shared_layers_container" value="Shared Layers Module" style="rounded=1;whiteSpace=wrap;html=1;fillColor=#cdeb8b;strokeColor=#363723;dashed=1;dashPattern=8 4;align=center;verticalAlign=top;" parent="1" vertex="1">
          <mxGeometry x="1130" y="445" width="370" height="170" as="geometry" />
        </mxCell>
        <mxCell id="m1y5kPZh6noj5z31yK5j-5" style="edgeStyle=orthogonalEdgeStyle;rounded=0;orthogonalLoop=1;jettySize=auto;html=1;entryX=0;entryY=0.5;entryDx=0;entryDy=0;" parent="shared_layers_container" source="shared_linear_initial" target="shared_act_initial" edge="1">
          <mxGeometry relative="1" as="geometry">
            <Array as="points">
              <mxPoint x="10" y="45" />
              <mxPoint x="10" y="80" />
            </Array>
          </mxGeometry>
        </mxCell>
        <mxCell id="shared_linear_initial" value="Linear(L, L)" style="rounded=0;whiteSpace=wrap;html=1;fillColor=#e6ffba;strokeColor=#5B882D;" parent="shared_layers_container" vertex="1">
          <mxGeometry x="20" y="30" width="100" height="30" as="geometry" />
        </mxCell>
        <mxCell id="m1y5kPZh6noj5z31yK5j-6" style="edgeStyle=orthogonalEdgeStyle;rounded=0;orthogonalLoop=1;jettySize=auto;html=1;entryX=1;entryY=0.5;entryDx=0;entryDy=0;" parent="shared_layers_container" source="shared_act_initial" target="shared_norm_initial" edge="1">
          <mxGeometry relative="1" as="geometry">
            <Array as="points">
              <mxPoint x="130" y="80" />
              <mxPoint x="130" y="115" />
            </Array>
          </mxGeometry>
        </mxCell>
        <mxCell id="shared_act_initial" value="LeakyReLU" style="rounded=0;whiteSpace=wrap;html=1;fillColor=#e6ffba;strokeColor=#5B882D;" parent="shared_layers_container" vertex="1">
          <mxGeometry x="20" y="65" width="100" height="30" as="geometry" />
        </mxCell>
        <mxCell id="m1y5kPZh6noj5z31yK5j-7" style="edgeStyle=orthogonalEdgeStyle;rounded=0;orthogonalLoop=1;jettySize=auto;html=1;entryX=0;entryY=0.5;entryDx=0;entryDy=0;" parent="shared_layers_container" source="shared_norm_initial" target="shared_dropout_initial" edge="1">
          <mxGeometry relative="1" as="geometry">
            <Array as="points">
              <mxPoint x="10" y="115" />
              <mxPoint x="10" y="150" />
            </Array>
          </mxGeometry>
        </mxCell>
        <mxCell id="shared_norm_initial" value="LayerNorm(L)" style="rounded=0;whiteSpace=wrap;html=1;fillColor=#e6ffba;strokeColor=#5B882D;" parent="shared_layers_container" vertex="1">
          <mxGeometry x="20" y="100" width="100" height="30" as="geometry" />
        </mxCell>
        <mxCell id="m1y5kPZh6noj5z31yK5j-8" style="edgeStyle=orthogonalEdgeStyle;rounded=0;orthogonalLoop=1;jettySize=auto;html=1;entryX=0;entryY=0.5;entryDx=0;entryDy=0;" parent="shared_layers_container" source="shared_dropout_initial" target="residual_block_repr" edge="1">
          <mxGeometry relative="1" as="geometry">
            <Array as="points">
              <mxPoint x="140" y="150" />
              <mxPoint x="140" y="95" />
            </Array>
          </mxGeometry>
        </mxCell>
        <mxCell id="shared_dropout_initial" value="Dropout" style="rounded=0;whiteSpace=wrap;html=1;fillColor=#e6ffba;strokeColor=#5B882D;" parent="shared_layers_container" vertex="1">
          <mxGeometry x="20" y="135" width="100" height="30" as="geometry" />
        </mxCell>
        <mxCell id="residual_block_repr" value="ResidualBlock&lt;br&gt;&lt;i&gt;(LN, Linear, Act, DO + Res)&lt;br&gt;x (NumBlocks - 1)&lt;/i&gt;" style="rounded=1;whiteSpace=wrap;html=1;fillColor=#d9f7b3;strokeColor=#5B882D;dashed=0;" parent="shared_layers_container" vertex="1">
          <mxGeometry x="150" y="50" width="200" height="90" as="geometry" />
        </mxCell>
        <mxCell id="1grhzZhqxZWq7j87jwru-10" style="edgeStyle=orthogonalEdgeStyle;rounded=0;orthogonalLoop=1;jettySize=auto;html=1;exitX=1;exitY=0.5;exitDx=0;exitDy=0;entryX=0;entryY=0.5;entryDx=0;entryDy=0;" edge="1" parent="1" source="cat_encoder_block" target="enc_cat_tensor">
          <mxGeometry relative="1" as="geometry" />
        </mxCell>
        <mxCell id="cat_encoder_block" value="Category Encoder&lt;br&gt;&lt;i&gt;(Linear, ReLU, LayerNorm, Dropout)&lt;/i&gt;" style="rounded=1;whiteSpace=wrap;html=1;fillColor=#f8cecc;strokeColor=#b85450;" parent="1" vertex="1">
          <mxGeometry x="320" y="660" width="150" height="80" as="geometry" />
        </mxCell>
        <mxCell id="1grhzZhqxZWq7j87jwru-13" style="edgeStyle=orthogonalEdgeStyle;rounded=0;orthogonalLoop=1;jettySize=auto;html=1;exitX=1;exitY=0.5;exitDx=0;exitDy=0;entryX=0;entryY=0.5;entryDx=0;entryDy=0;" edge="1" parent="1" source="enc_cat_tensor" target="film_layer_cat">
          <mxGeometry relative="1" as="geometry" />
        </mxCell>
        <mxCell id="enc_cat_tensor" value="enc_cat&lt;br&gt;[B, 1, shared_size]" style="shape=parallelogram;perimeter=parallelogramPerimeter;whiteSpace=wrap;html=1;fixedSize=1;fillColor=#fff2cc;strokeColor=#d6b656;" parent="1" vertex="1">
          <mxGeometry x="510" y="670" width="180" height="60" as="geometry" />
        </mxCell>
        <mxCell id="1grhzZhqxZWq7j87jwru-21" style="edgeStyle=orthogonalEdgeStyle;rounded=0;orthogonalLoop=1;jettySize=auto;html=1;exitX=1;exitY=0.5;exitDx=0;exitDy=0;entryX=0;entryY=0.5;entryDx=0;entryDy=0;" edge="1" parent="1" source="film_layer_cat" target="mod_cat_tensor">
          <mxGeometry relative="1" as="geometry" />
        </mxCell>
        <mxCell id="film_layer_cat" value="FiLM Layer&lt;br&gt;&lt;i&gt;(γ * x + β)&lt;/i&gt;" style="shape=hexagon;perimeter=hexagonPerimeter2;whiteSpace=wrap;html=1;size=0.25;fillColor=#fad7ac;strokeColor=#b46504;" parent="1" vertex="1">
          <mxGeometry x="740" y="665" width="150" height="70" as="geometry" />
        </mxCell>
        <mxCell id="note_shared_path_title" value="Shared Processing Path" style="text;html=1;align=center;verticalAlign=middle;resizable=0;points=[];autosize=1;strokeColor=none;fillColor=none;fontSize=14;fontStyle=1" parent="1" vertex="1">
          <mxGeometry x="1210" y="395" width="200" height="30" as="geometry" />
        </mxCell>
        <mxCell id="task_id_next" value="Task ID: 1 (Next POI)" style="ellipse;whiteSpace=wrap;html=1;fillColor=#d5e8d4;strokeColor=#82b366;" parent="1" vertex="1">
          <mxGeometry x="180" y="540" width="100" height="50" as="geometry" />
        </mxCell>
        <mxCell id="1grhzZhqxZWq7j87jwru-15" style="edgeStyle=orthogonalEdgeStyle;rounded=0;orthogonalLoop=1;jettySize=auto;html=1;entryX=0;entryY=1;entryDx=0;entryDy=0;" edge="1" parent="1" source="task_id_next" target="task_embedding_layer">
          <mxGeometry relative="1" as="geometry" />
        </mxCell>
        <mxCell id="1grhzZhqxZWq7j87jwru-14" style="edgeStyle=orthogonalEdgeStyle;rounded=0;orthogonalLoop=1;jettySize=auto;html=1;exitX=1;exitY=0.5;exitDx=0;exitDy=0;entryX=0;entryY=0;entryDx=0;entryDy=0;" edge="1" parent="1" source="task_id_cat" target="task_embedding_layer">
          <mxGeometry relative="1" as="geometry" />
        </mxCell>
        <mxCell id="task_id_cat" value="Task ID: 0 (Category)" style="ellipse;whiteSpace=wrap;html=1;fillColor=#d5e8d4;strokeColor=#82b366;" parent="1" vertex="1">
          <mxGeometry x="180" y="460" width="100" height="50" as="geometry" />
        </mxCell>
        <mxCell id="1grhzZhqxZWq7j87jwru-16" style="edgeStyle=orthogonalEdgeStyle;rounded=0;orthogonalLoop=1;jettySize=auto;html=1;exitX=1;exitY=1;exitDx=0;exitDy=0;entryX=0;entryY=0.5;entryDx=0;entryDy=0;" edge="1" parent="1" source="task_embedding_layer" target="emb_next_tensor">
          <mxGeometry relative="1" as="geometry" />
        </mxCell>
        <mxCell id="1grhzZhqxZWq7j87jwru-17" style="edgeStyle=orthogonalEdgeStyle;rounded=0;orthogonalLoop=1;jettySize=auto;html=1;exitX=1;exitY=0;exitDx=0;exitDy=0;" edge="1" parent="1" source="task_embedding_layer" target="emb_cat_tensor">
          <mxGeometry relative="1" as="geometry" />
        </mxCell>
        <mxCell id="task_embedding_layer" value="Task Embedding&lt;br&gt;&lt;i&gt;nn.Embedding(2, shared_size)&lt;/i&gt;" style="rhombus;whiteSpace=wrap;html=1;fillColor=#e1d5e7;strokeColor=#9673a6;" parent="1" vertex="1">
          <mxGeometry x="360" y="485" width="140" height="80" as="geometry" />
        </mxCell>
        <mxCell id="1grhzZhqxZWq7j87jwru-18" style="edgeStyle=orthogonalEdgeStyle;rounded=0;orthogonalLoop=1;jettySize=auto;html=1;entryX=0.5;entryY=1;entryDx=0;entryDy=0;" edge="1" parent="1" source="emb_cat_tensor" target="film_layer_next">
          <mxGeometry relative="1" as="geometry" />
        </mxCell>
        <mxCell id="emb_cat_tensor" value="emb_cat&lt;br&gt;[B, shared_size]" style="shape=parallelogram;perimeter=parallelogramPerimeter;whiteSpace=wrap;html=1;fixedSize=1;fillColor=#fff2cc;strokeColor=#d6b656;" parent="1" vertex="1">
          <mxGeometry x="570" y="450" width="120" height="50" as="geometry" />
        </mxCell>
        <mxCell id="1grhzZhqxZWq7j87jwru-19" style="edgeStyle=orthogonalEdgeStyle;rounded=0;orthogonalLoop=1;jettySize=auto;html=1;entryX=0.5;entryY=0;entryDx=0;entryDy=0;" edge="1" parent="1" source="emb_next_tensor" target="film_layer_cat">
          <mxGeometry relative="1" as="geometry" />
        </mxCell>
        <mxCell id="emb_next_tensor" value="emb_next&lt;br&gt;[B, shared_size]" style="shape=parallelogram;perimeter=parallelogramPerimeter;whiteSpace=wrap;html=1;fixedSize=1;fillColor=#fff2cc;strokeColor=#d6b656;" parent="1" vertex="1">
          <mxGeometry x="570" y="540" width="120" height="50" as="geometry" />
        </mxCell>
        <mxCell id="1grhzZhqxZWq7j87jwru-26" style="edgeStyle=orthogonalEdgeStyle;rounded=0;orthogonalLoop=1;jettySize=auto;html=1;exitX=1;exitY=0.25;exitDx=0;exitDy=0;entryX=0.444;entryY=1.042;entryDx=0;entryDy=0;entryPerimeter=0;" edge="1" parent="1" source="shared_layers_container" target="shared_cat_tensor">
          <mxGeometry relative="1" as="geometry" />
        </mxCell>
        <mxCell id="1grhzZhqxZWq7j87jwru-33" value="" style="group" vertex="1" connectable="0" parent="1">
          <mxGeometry x="75" y="665" width="180" height="105" as="geometry" />
        </mxCell>
        <mxCell id="input_cat" value="Category Input&lt;br&gt;[B, 1, feature_size]" style="shape=cylinder3;whiteSpace=wrap;html=1;boundedLbl=1;backgroundOutline=1;size=15;fillColor=#dae8fc;strokeColor=#6c8ebf;" parent="1grhzZhqxZWq7j87jwru-33" vertex="1">
          <mxGeometry width="180" height="70" as="geometry" />
        </mxCell>
        <mxCell id="note_cat_path" value="Category Task Path" style="text;html=1;align=center;verticalAlign=middle;resizable=0;points=[];autosize=1;strokeColor=none;fillColor=none;fontSize=14;fontStyle=1" parent="1grhzZhqxZWq7j87jwru-33" vertex="1">
          <mxGeometry x="10" y="75" width="160" height="30" as="geometry" />
        </mxCell>
        <mxCell id="1grhzZhqxZWq7j87jwru-34" style="edgeStyle=orthogonalEdgeStyle;rounded=0;orthogonalLoop=1;jettySize=auto;html=1;entryX=0;entryY=0.5;entryDx=0;entryDy=0;" edge="1" parent="1" source="input_cat" target="cat_encoder_block">
          <mxGeometry relative="1" as="geometry" />
        </mxCell>
      </root>
    </mxGraphModel>
  </diagram>
</mxfile>
